<svg xmlns="http://www.w3.org/2000/svg" aria-hidden="true" style="position:absolute;width:0;height:0;overflow:hidden"><defs><symbol id="youtube" viewBox="0 0 32 32"><path fill="#ff3d00" d="M28.8 22.6a3.33 3.33 0 0 1-2.8 2.667C23.8 25.6 20.133 26 16 26c-4.067 0-7.733-.4-10-.733A3.33 3.33 0 0 1 3.2 22.6c-.267-1.533-.533-3.8-.533-6.6s.267-5.067.533-6.6A3.33 3.33 0 0 1 6 6.733C8.2 6.4 11.867 6 16 6s7.733.4 10 .733A3.33 3.33 0 0 1 28.8 9.4c.267 1.533.6 3.8.6 6.6-.067 2.8-.333 5.067-.6 6.6z" style="fill:var(--color1, #ff3d00)"/><path fill="#fff" d="M13.333 20.667v-9.333l8 4.667z" style="fill:var(--color2, #fff)"/><symbol id="search" viewBox="0 0 32 32"><path fill="none" stroke="#fff" stroke-linecap="round" stroke-linejoin="round" stroke-width="2.667" d="M14.667 25.333c5.891 0 10.667-4.776 10.667-10.667S20.558 3.999 14.667 3.999 4 8.775 4 14.666s4.776 10.667 10.667 10.667zM28 28.001l-5.8-5.8" style="stroke:var(--color2, #fff)"/></symbol><symbol id="film" viewBox="0 0 32 32"><path fill="none" stroke-linecap="round" stroke-linejoin="round" stroke-width="2.667" d="M26.427 2.667H5.574a2.907 2.907 0 0 0-2.907 2.907v20.853a2.907 2.907 0 0 0 2.907 2.907h20.853a2.907 2.907 0 0 0 2.907-2.907V5.574a2.907 2.907 0 0 0-2.907-2.907zM9.333 2.667v26.667M22.667 2.667v26.667M2.667 16h26.667M2.667 9.333h6.667M2.667 22.667h6.667M22.667 22.667h6.667M22.667 9.333h6.667"/></symbol><symbol id="close" viewBox="0 0 32 32"><path stroke-width="2.133" d="m8.533 8.533 14.933 14.933m-14.933.001L23.466 8.534"/></symbol></defs></svg>